<svg xmlns="http://www.w3.org/2000/svg" width="21" height="20" viewBox="0 0 21 20" fill="none">
    <path d="M8.53338 4.65784C8.87931 3.78072 10.1207 3.78072 10.4666 4.65785L11.5386 7.37598C11.6442 7.64377 11.8562 7.85575 12.124 7.96136L14.8422 9.03338C15.7193 9.37931 15.7193 10.6207 14.8422 10.9666L12.124 12.0386C11.8562 12.1442 11.6442 12.3562 11.5386 12.624L10.4666 15.3422C10.1207 16.2193 8.87931 16.2193 8.53338 15.3422L7.46136 12.624C7.35574 12.3562 7.14377 12.1442 6.87598 12.0386L4.15784 10.9666C3.28072 10.6207 3.28072 9.37931 4.15785 9.03338L6.87598 7.96136C7.14377 7.85574 7.35575 7.64377 7.46136 7.37598L8.53338 4.65784Z"
          stroke="currentColor"/>
    <path fill-rule="evenodd" clip-rule="evenodd"
          d="M15.7788 2.18536C15.6765 1.93826 15.3264 1.9382 15.2239 2.18526L15.0912 2.5053C14.8879 2.99548 14.4983 3.3849 14.0079 3.58798L13.6854 3.72156C13.4382 3.82396 13.4382 4.17415 13.6855 4.27647L14.0049 4.40864C14.4962 4.61192 14.8865 5.00222 15.0896 5.49348L15.2224 5.81445C15.3247 6.0618 15.6751 6.06186 15.7774 5.81455L15.9093 5.49609C16.1125 5.00523 16.5025 4.61524 16.9934 4.41202L17.3158 4.27854C17.563 4.1762 17.5631 3.8261 17.3159 3.72367L16.9957 3.59096C16.5053 3.38775 16.1156 2.99814 15.9124 2.50778L15.7788 2.18536ZM15.7788 14.1854C15.6765 13.9383 15.3264 13.9382 15.2239 14.1853L15.0912 14.5053C14.8879 14.9955 14.4983 15.3849 14.0079 15.588L13.6854 15.7216C13.4382 15.824 13.4382 16.1742 13.6855 16.2765L14.0049 16.4086C14.4962 16.6119 14.8865 17.0022 15.0896 17.4935L15.2224 17.8145C15.3247 18.0618 15.6751 18.0619 15.7774 17.8145L15.9093 17.4961C16.1125 17.0052 16.5025 16.6152 16.9934 16.412L17.3158 16.2785C17.563 16.1762 17.5631 15.8261 17.3159 15.7237L16.9957 15.591C16.5053 15.3878 16.1156 14.9981 15.9124 14.5078L15.7788 14.1854Z"
          fill="currentColor"/>
</svg>