<svg width="20" height="21" viewBox="0 0 20 21" fill="none" xmlns="http://www.w3.org/2000/svg">
    <g id="icon / send / s">
        <path id="Union"
              d="M19.1673 10.8405C19.1673 5.77788 15.0633 1.67383 10.0007 1.67383C4.93804 1.67383 0.833984 5.77788 0.833984 10.8405C0.833984 15.9031 4.93804 20.0072 10.0007 20.0072C15.0633 20.0072 19.1673 15.9031 19.1673 10.8405ZM10.5891 5.88102C11.4676 6.75834 12.3453 7.63653 13.2229 8.51471C13.5242 8.81623 13.8255 9.11776 14.1269 9.41924C14.4523 9.74474 14.4536 10.2725 14.1289 10.5987C13.8065 10.9225 13.2774 10.9268 12.9543 10.6037L10.834 8.48345V15.0072C10.834 15.4674 10.4609 15.8405 10.0007 15.8405C9.54046 15.8405 9.16736 15.4674 9.16736 15.0072V8.48345L7.05352 10.5973C6.72854 10.9223 6.20057 10.9218 5.87558 10.5968C5.5506 10.2718 5.55003 9.74382 5.87495 9.41877C6.17654 9.11707 6.47809 8.81533 6.77964 8.51359C7.6569 7.63578 8.53416 6.75798 9.41226 5.88103C9.73738 5.55633 10.264 5.55632 10.5891 5.88102Z"
              fill="currentColor"/>
    </g>
</svg>
