<svg width="20" height="21" viewBox="0 0 20 21" fill="none" xmlns="http://www.w3.org/2000/svg">
<path d="M13.125 7.71583V11.6221C13.125 12.2437 13.3719 12.8398 13.8115 13.2794C14.251 13.7189 14.8472 13.9658 15.4688 13.9658C16.0904 13.9658 16.6865 13.7189 17.126 13.2794C17.5656 12.8398 17.8125 12.2437 17.8125 11.6221V10.8408C17.8125 9.08091 17.2183 7.37254 16.1261 5.99252C15.0339 4.6125 13.5078 3.64167 11.795 3.23732C10.0821 2.83297 8.28293 3.0188 6.68889 3.7647C5.09485 4.51059 3.79936 5.77285 3.0123 7.34697C2.22524 8.92109 1.99273 10.7148 2.35243 12.4376C2.71214 14.1604 3.64299 15.7112 4.99417 16.8389C6.34535 17.9666 8.0377 18.605 9.79702 18.6507C11.5563 18.6964 13.2796 18.1468 14.6875 17.0908" stroke="black" stroke-width="1.25" stroke-linecap="round" stroke-linejoin="round"/>
<path d="M6.875 10.8408C6.875 11.6696 7.20424 12.4645 7.79029 13.0505C8.37634 13.6366 9.1712 13.9658 10 13.9658C10.8288 13.9658 11.6237 13.6366 12.2097 13.0505C12.7958 12.4645 13.125 11.6696 13.125 10.8408C13.125 10.012 12.7958 9.21716 12.2097 8.63111C11.6237 8.04506 10.8288 7.71582 10 7.71582C9.1712 7.71582 8.37634 8.04506 7.79029 8.63111C7.20424 9.21716 6.875 10.012 6.875 10.8408Z" stroke="black" stroke-width="1.25" stroke-linecap="round" stroke-linejoin="round"/>
</svg>
