<svg width="20" height="21" viewBox="0 0 20 21" fill="none" xmlns="http://www.w3.org/2000/svg">
    <g id="icon / font / m">
        <path id="Vector"
              d="M9.92245 3.5527C7.91641 3.5527 6.20484 4.26125 4.78773 5.67836C3.37063 7.09547 2.66207 8.80704 2.66207 10.8131C2.66207 12.0673 2.95157 13.2158 3.53056 14.2586C4.10955 15.3012 4.88748 16.1325 5.86437 16.7525V15.5337C5.86437 15.3303 5.93265 15.1598 6.0692 15.0222C6.20576 14.8847 6.37489 14.8159 6.5766 14.8159C6.77849 14.8159 6.94947 14.8847 7.08952 15.0222C7.22976 15.1598 7.29988 15.3303 7.29988 15.5337V18.6764C7.29988 18.9279 7.21485 19.1388 7.0448 19.3088C6.87456 19.479 6.66374 19.5642 6.41235 19.5642H3.26941C3.06604 19.5642 2.89562 19.4959 2.75814 19.3593C2.62048 19.2228 2.55165 19.0536 2.55165 18.8519C2.55165 18.65 2.62048 18.4791 2.75814 18.339C2.89562 18.1988 3.06604 18.1287 3.26941 18.1287H5.29099C4.07081 17.3741 3.08831 16.3574 2.3435 15.0785C1.59888 13.7998 1.22656 12.3872 1.22656 10.8407C1.22656 9.6481 1.45634 8.52095 1.91588 7.45922C2.37543 6.39731 3.00034 5.47131 3.79061 4.68123C4.58069 3.89096 5.50678 3.26606 6.56887 2.80651C7.63097 2.34696 8.75959 2.11719 9.95475 2.11719C11.7928 2.11719 13.4391 2.62661 14.8937 3.64545C16.3486 4.66412 17.3961 5.97319 18.0364 7.57268C18.1185 7.75727 18.1188 7.93846 18.0375 8.11624C17.956 8.29403 17.8253 8.42442 17.6455 8.50742C17.4657 8.59061 17.2866 8.58941 17.1083 8.50383C16.9301 8.41807 16.7999 8.28528 16.7177 8.10548C16.1911 6.7734 15.3177 5.68158 14.0973 4.83003C12.8769 3.97848 11.4853 3.5527 9.92245 3.5527Z"
              fill="currentColor"/>
        <path id="Vector_2"
              d="M10.8158 18.7685L14.0181 10.3528C14.0739 10.2264 14.1491 10.1307 14.2436 10.0655C14.3382 10.0004 14.4458 9.96777 14.5666 9.96777H15.0221C15.1506 9.96777 15.2623 10.002 15.3573 10.0704C15.4524 10.1389 15.5278 10.2363 15.5837 10.3626L18.7245 18.7542C18.8016 18.9504 18.7882 19.1344 18.6845 19.3062C18.5808 19.478 18.4174 19.5639 18.1943 19.5639C18.0572 19.5639 17.9375 19.5297 17.835 19.4615C17.7327 19.393 17.6575 19.2955 17.6094 19.169L16.8299 17.0033H12.7089L11.9161 19.1851C11.8775 19.2942 11.8086 19.3845 11.7092 19.4563C11.6098 19.528 11.4949 19.5639 11.3644 19.5639C11.1433 19.5639 10.9783 19.4788 10.8692 19.3088C10.7602 19.1385 10.7424 18.9584 10.8158 18.7685ZM13.0848 15.9305H16.4511L14.8521 11.4553H14.7619L13.0848 15.9305Z"
              fill="currentColor"/>
    </g>
</svg>
