<svg xmlns="http://www.w3.org/2000/svg" width="17" height="16" viewBox="0 0 17 16" fill="none">
    <path d="M6.17211 14.1865C6.30477 14.1865 6.43199 14.1338 6.52576 14.04L14.4246 6.13678C14.6197 5.94154 14.6197 5.62512 14.4246 5.42987L12.3108 3.3148C12.1155 3.1194 11.7988 3.1194 11.6035 3.31479L3.70494 11.2177C3.61123 11.3115 3.55859 11.4386 3.55859 11.5712V13.6865C3.55859 13.9627 3.78245 14.1865 4.05859 14.1865H6.17211Z"
          stroke="currentColor"/>
    <path d="M9.9375 4.97949L12.7582 7.80188" stroke="currentColor"/>
    <path d="M6.34776 1.52132C6.38669 1.42647 6.51969 1.42649 6.55859 1.52136L6.60935 1.64515C6.68655 1.83341 6.83459 1.983 7.02092 2.06101L7.1426 2.11196C7.23652 2.15129 7.23649 2.2857 7.14256 2.32499L7.02005 2.37624C6.83353 2.45426 6.68535 2.60399 6.60814 2.79245L6.55806 2.91471C6.51916 3.00967 6.38603 3.00964 6.34717 2.91468L6.29673 2.79145C6.21954 2.60284 6.07127 2.45299 5.8846 2.37494L5.76323 2.3242C5.66928 2.28492 5.66925 2.15047 5.76319 2.11115L5.88574 2.05987C6.07204 1.9819 6.22008 1.83239 6.29733 1.6442L6.34776 1.52132Z"
          fill="currentColor"/>
    <path d="M4.0868 2.01949C4.18797 1.77289 4.53373 1.77295 4.63482 2.01958L4.83325 2.5037C5.08397 3.1154 5.56486 3.60147 6.17019 3.85504L6.6497 4.05591C6.89374 4.15814 6.89368 4.50742 6.6496 4.60957L6.17037 4.81012C5.56441 5.06371 5.08306 5.55024 4.83232 6.16257L4.63467 6.64525C4.53359 6.8921 4.1875 6.89204 4.0865 6.64516L3.88813 6.16024C3.63743 5.54741 3.15577 5.06048 2.54935 4.80683L2.07181 4.60708C1.82767 4.50496 1.82761 4.15559 2.07172 4.05338L2.552 3.85229C3.15724 3.59888 3.63814 3.11305 3.88901 2.50158L4.0868 2.01949Z"
          fill="currentColor"/>
</svg>