<svg width="17" height="17" viewBox="0 0 17 17" fill="none" xmlns="http://www.w3.org/2000/svg">
<path d="M15.7936 8.72396C15.7936 12.774 12.5104 16.0573 8.46029 16.0573C4.4102 16.0573 1.12695 12.774 1.12695 8.72396C1.12695 4.67387 4.4102 1.39062 8.46029 1.39062C12.5104 1.39062 15.7936 4.67387 15.7936 8.72396Z" fill="#FB006D"/>
<path d="M8.46159 5.39062C8.0934 5.39062 7.79492 5.6891 7.79492 6.05729V9.39062C7.79492 9.75881 8.0934 10.0573 8.46159 10.0573C8.82978 10.0573 9.12826 9.75881 9.12826 9.39062V6.05729C9.12826 5.6891 8.82978 5.39062 8.46159 5.39062Z" fill="white"/>
<path d="M8.46159 10.724C8.0934 10.724 7.79492 11.0224 7.79492 11.3906C7.79492 11.7588 8.0934 12.0573 8.46159 12.0573C8.82978 12.0573 9.12826 11.7588 9.12826 11.3906C9.12826 11.0224 8.82978 10.724 8.46159 10.724Z" fill="white"/>
</svg>
