<svg width="24" height="24" viewBox="0 0 24 24" fill="none" xmlns="http://www.w3.org/2000/svg">
    <g clip-path="url(#clip0_5942_74694)">
        <path d="M5.58984 11.9997C5.58984 8.97803 5.58984 7.46725 6.52852 6.52852C7.46725 5.58984 8.97803 5.58984 11.9997 5.58984C15.0213 5.58984 16.5322 5.58984 17.4708 6.52852C18.4096 7.46725 18.4096 8.97803 18.4096 11.9997C18.4096 15.0213 18.4096 16.5322 17.4708 17.4708C16.5322 18.4096 15.0213 18.4096 11.9997 18.4096C8.97803 18.4096 7.46725 18.4096 6.52852 17.4708C5.58984 16.5322 5.58984 15.0213 5.58984 11.9997Z"
              stroke="currentColor" stroke-width="1.25"/>
        <path d="M13.2813 9.43605C13.2791 10.4229 14.3461 11.042 15.2018 10.5504C15.6007 10.3212 15.8462 9.89601 15.8452 9.43605C15.8473 8.44916 14.7803 7.83012 13.9246 8.32172C13.5258 8.55082 13.2803 8.97609 13.2813 9.43605Z"
              fill="currentColor"/>
        <path d="M5.58984 12.3208L6.71256 11.3384C7.29668 10.8273 8.17705 10.8566 8.72584 11.4054L11.4755 14.1551C11.916 14.5956 12.6094 14.6557 13.1191 14.2974L13.3103 14.1631C14.0437 13.6477 15.036 13.7074 15.7024 14.3071L17.7686 16.1667"
              stroke="currentColor" stroke-width="1.25" stroke-linecap="round"/>
    </g>
    <defs>
        <clipPath id="clip0_5942_74694">
            <rect width="15" height="15" fill="white" transform="translate(4.5 4.5)"/>
        </clipPath>
    </defs>
</svg>
