<svg width="25" height="24" viewBox="0 0 25 24" fill="none" xmlns="http://www.w3.org/2000/svg">
    <g clip-path="url(#clip0_5942_74700)">
        <path d="M1.63867 11.9997C1.63867 8.97803 1.63867 7.46725 2.57734 6.52852C3.51607 5.58984 5.02686 5.58984 8.04853 5.58984C11.0702 5.58984 12.581 5.58984 13.5197 6.52852C14.4584 7.46725 14.4584 8.97803 14.4584 11.9997C14.4584 15.0213 14.4584 16.5322 13.5197 17.4708C12.5811 18.4096 11.0702 18.4096 8.04853 18.4096C5.02686 18.4096 3.51607 18.4096 2.57734 17.4708C1.63867 16.5322 1.63867 15.0213 1.63867 11.9997Z"
              stroke="currentColor" stroke-width="1.25"/>
        <path d="M9.33203 9.43605C9.32992 10.4229 10.3969 11.042 11.2526 10.5504C11.6515 10.3212 11.897 9.89601 11.896 9.43605C11.8981 8.44916 10.8311 7.83012 9.97539 8.32172C9.57655 8.55082 9.33104 8.97609 9.33203 9.43605Z"
              fill="currentColor" stroke="currentColor" stroke-width="0.2"/>
        <path d="M1.63867 12.3198L2.76139 11.3374C3.34551 10.8263 4.22588 10.8556 4.77467 11.4044L7.52436 14.1541C7.96481 14.5946 8.65826 14.6547 9.16797 14.2964L9.3591 14.1621C10.0925 13.6467 11.0849 13.7064 11.7512 14.3061L13.8174 16.1657"
              stroke="currentColor" stroke-width="1.25" stroke-linecap="round"/>
    </g>
    <path d="M23.4512 7H16.5488" stroke="currentColor" stroke-width="1.25" stroke-linecap="round"/>
    <path d="M21.3805 12H16.5488" stroke="currentColor" stroke-width="1.25" stroke-linecap="round"/>
    <path d="M20 17H16.5488" stroke="currentColor" stroke-width="1.25" stroke-linecap="round"/>
    <defs>
        <clipPath id="clip0_5942_74700">
            <rect width="15" height="15" fill="white" transform="translate(0.548828 4.5)"/>
        </clipPath>
    </defs>
</svg>
