<svg width="19" height="19" viewBox="0 0 19 19" fill="none" xmlns="http://www.w3.org/2000/svg">
    <path id="Vector" fill-rule="evenodd" clip-rule="evenodd"
          d="M9.165 19.0058C14.2266 19.0058 18.33 14.9024 18.33 9.84078C18.33 4.77907 14.2266 0.675781 9.165 0.675781C4.10329 0.675781 0 4.77907 0 9.84078C0 14.9024 4.10329 19.0058 9.165 19.0058ZM6.03589 6.71167C5.499 7.24855 5.499 8.1126 5.499 9.84078C5.499 11.569 5.499 12.433 6.03589 12.9699C6.57277 13.5068 7.43682 13.5068 9.165 13.5068C10.8932 13.5068 11.7572 13.5068 12.2941 12.9699C12.831 12.433 12.831 11.569 12.831 9.84078C12.831 8.1126 12.831 7.24855 12.2941 6.71167C11.7572 6.17478 10.8932 6.17478 9.165 6.17478C7.43682 6.17478 6.57277 6.17478 6.03589 6.71167Z"
          fill="currentColor"/>
</svg>
