<svg xmlns="http://www.w3.org/2000/svg" width="20" height="21" viewBox="0 0 20 21" fill="none">
    <path d="M8.83268 12.3172L7.04102 10.5256C6.88824 10.3728 6.69379 10.2964 6.45768 10.2964C6.22157 10.2964 6.02713 10.3728 5.87435 10.5256C5.72157 10.6783 5.64518 10.8728 5.64518 11.1089C5.64518 11.345 5.72157 11.5394 5.87435 11.6922L8.24935 14.0672C8.41602 14.2339 8.61046 14.3172 8.83268 14.3172C9.05491 14.3172 9.24935 14.2339 9.41602 14.0672L14.1244 9.35889C14.2771 9.20611 14.3535 9.01167 14.3535 8.77555C14.3535 8.53944 14.2771 8.345 14.1244 8.19222C13.9716 8.03944 13.7771 7.96305 13.541 7.96305C13.3049 7.96305 13.1105 8.03944 12.9577 8.19222L8.83268 12.3172ZM9.99935 19.1506C8.84657 19.1506 7.76324 18.9318 6.74935 18.4943C5.73546 18.0568 4.85352 17.4631 4.10352 16.7131C3.35352 15.9631 2.75977 15.0811 2.32227 14.0672C1.88477 13.0533 1.66602 11.97 1.66602 10.8172C1.66602 9.66444 1.88477 8.58111 2.32227 7.56722C2.75977 6.55333 3.35352 5.67139 4.10352 4.92139C4.85352 4.17139 5.73546 3.57764 6.74935 3.14014C7.76324 2.70264 8.84657 2.48389 9.99935 2.48389C11.1521 2.48389 12.2355 2.70264 13.2494 3.14014C14.2632 3.57764 15.1452 4.17139 15.8952 4.92139C16.6452 5.67139 17.2389 6.55333 17.6764 7.56722C18.1139 8.58111 18.3327 9.66444 18.3327 10.8172C18.3327 11.97 18.1139 13.0533 17.6764 14.0672C17.2389 15.0811 16.6452 15.9631 15.8952 16.7131C15.1452 17.4631 14.2632 18.0568 13.2494 18.4943C12.2355 18.9318 11.1521 19.1506 9.99935 19.1506Z" fill="#66CF80"/>
</svg>