<svg width="17" height="16" viewBox="0 0 17 16" fill="none" xmlns="http://www.w3.org/2000/svg">
    <path d="M5.64559 5.9359C5.79326 5.9359 5.92009 5.88412 6.02609 5.78057C6.13198 5.6769 6.18492 5.55123 6.18492 5.40357C6.18492 5.2559 6.13314 5.12907 6.02959 5.02307C5.92592 4.91718 5.80026 4.86423 5.65259 4.86423C5.50492 4.86423 5.37809 4.91601 5.27209 5.01956C5.1662 5.12323 5.11326 5.2489 5.11326 5.39656C5.11326 5.54423 5.16503 5.67107 5.26859 5.77707C5.37226 5.88295 5.49792 5.9359 5.64559 5.9359ZM5.64559 8.5359C5.79326 8.5359 5.92009 8.48412 6.02609 8.38057C6.13198 8.2769 6.18492 8.15123 6.18492 8.00357C6.18492 7.8559 6.13314 7.72907 6.02959 7.62307C5.92592 7.51718 5.80026 7.46423 5.65259 7.46423C5.50492 7.46423 5.37809 7.51601 5.27209 7.61957C5.1662 7.72323 5.11326 7.8489 5.11326 7.99657C5.11326 8.14423 5.16503 8.27107 5.26859 8.37707C5.37226 8.48295 5.49792 8.5359 5.64559 8.5359ZM5.64559 11.1359C5.79326 11.1359 5.92009 11.0841 6.02609 10.9806C6.13198 10.8769 6.18492 10.7512 6.18492 10.6036C6.18492 10.4559 6.13314 10.3291 6.02959 10.2231C5.92592 10.1172 5.80026 10.0642 5.65259 10.0642C5.50492 10.0642 5.37809 10.116 5.27209 10.2196C5.1662 10.3232 5.11326 10.4489 5.11326 10.5966C5.11326 10.7442 5.16503 10.8711 5.26859 10.9771C5.37226 11.083 5.49792 11.1359 5.64559 11.1359ZM4.05426 13.2667C3.75414 13.2667 3.50048 13.1631 3.29326 12.9559C3.08603 12.7487 2.98242 12.495 2.98242 12.1949V3.80523C2.98242 3.50512 3.08603 3.25145 3.29326 3.04423C3.50048 2.83701 3.75414 2.7334 4.05426 2.7334H10.0593C10.2003 2.7334 10.3359 2.75907 10.4663 2.8104C10.5967 2.86162 10.7152 2.94057 10.8218 3.04723L13.2019 5.4274C13.3086 5.53395 13.3875 5.65245 13.4388 5.7829C13.4901 5.91323 13.5158 6.0489 13.5158 6.1899V12.1949C13.5158 12.495 13.4121 12.7487 13.2049 12.9559C12.9977 13.1631 12.744 13.2667 12.4439 13.2667H4.05426ZM4.05426 12.4001H12.4439C12.5038 12.4001 12.553 12.3808 12.5914 12.3424C12.6299 12.304 12.6491 12.2548 12.6491 12.1949V6.40007H10.3849C10.232 6.40007 10.1045 6.34895 10.0024 6.24673C9.9002 6.14462 9.84909 6.01712 9.84909 5.86423V3.60007H4.05426C3.99437 3.60007 3.9452 3.61929 3.90676 3.65773C3.86831 3.69618 3.84909 3.74534 3.84909 3.80523V12.1949C3.84909 12.2548 3.86831 12.304 3.90676 12.3424C3.9452 12.3808 3.99437 12.4001 4.05426 12.4001Z"
          fill="currentColor"/>
</svg>
