<svg preserveAspectRatio="none" overflow="visible" style="display: block;" width="16" height="16" viewBox="0 0 16 16" fill="none" xmlns="http://www.w3.org/2000/svg">
<g id="icon / add_column_right / s">
<g id="Vector">
<path fill-rule="evenodd" clip-rule="evenodd" d="M8.375 2C8.375 1.68934 8.62684 1.4375 8.9375 1.4375H12.6875C14.2408 1.4375 15.5 2.6967 15.5 4.25V11.75C15.5 13.3033 14.2408 14.5625 12.6875 14.5625H8.9375C8.62684 14.5625 8.375 14.3107 8.375 14V2ZM9.5 2.5625V13.4375H12.6875C13.6195 13.4375 14.375 12.682 14.375 11.75V4.25C14.375 3.31802 13.6195 2.5625 12.6875 2.5625H9.5Z" fill="#171717"/>
<path fill-rule="evenodd" clip-rule="evenodd" d="M8.9375 9.1925C8.62684 9.1925 8.375 8.94066 8.375 8.63V2.5625H4.46603C3.9325 2.5625 3.5 2.99501 3.5 3.52853C3.5 3.83919 3.24816 4.09103 2.9375 4.09103C2.62684 4.09103 2.375 3.83919 2.375 3.52853C2.375 2.37368 3.31118 1.4375 4.46603 1.4375H8.9375C9.24816 1.4375 9.5 1.68934 9.5 2V8.63C9.5 8.94066 9.24816 9.1925 8.9375 9.1925Z" fill="#171717"/>
<path fill-rule="evenodd" clip-rule="evenodd" d="M8.9375 6.8075C9.24816 6.8075 9.5 7.05934 9.5 7.37V14C9.5 14.3107 9.24816 14.5625 8.9375 14.5625H4.46603C3.31118 14.5625 2.375 13.6263 2.375 12.4715C2.375 12.1608 2.62684 11.909 2.9375 11.909C3.24816 11.909 3.5 12.1608 3.5 12.4715C3.5 13.005 3.9325 13.4375 4.46603 13.4375H8.375V7.37C8.375 7.05934 8.62684 6.8075 8.9375 6.8075Z" fill="#171717"/>
<path fill-rule="evenodd" clip-rule="evenodd" d="M2.9375 5.5625C3.24816 5.5625 3.5 5.81434 3.5 6.125V7.4375H4.8125C5.12316 7.4375 5.375 7.68934 5.375 8C5.375 8.31066 5.12316 8.5625 4.8125 8.5625H3.5V9.875C3.5 10.1857 3.24816 10.4375 2.9375 10.4375C2.62684 10.4375 2.375 10.1857 2.375 9.875V8.5625H1.0625C0.75184 8.5625 0.5 8.31066 0.5 8C0.5 7.68934 0.75184 7.4375 1.0625 7.4375H2.375V6.125C2.375 5.81434 2.62684 5.5625 2.9375 5.5625Z" fill="#171717"/>
</g>
</g>
</svg>
